{
  "asset": {
    "version": "2.0",
    "generator": "GLTFExporter"
  },
  "scenes": [
    {
      "nodes": [
        2
      ],
      "name": "Scene"
    }
  ],
  "scene": 0,
  "nodes": [
    {
      "matrix": [
        1,
        0,
        0,
        0,
        0,
        1,
        0,
        0,
        0,
        0,
        1,
        0,
        0,
        -1,
        0,
        1
      ],
      "name": "node_MeshObject-733032448-PolyPaper20",
      "extras": {
        "name": "node_MeshObject-733032448-PolyPaper20"
      },
      "mesh": 0
    },
    {
      "matrix": [
        1,
        0,
        0,
        0,
        0,
        1,
        0,
        0,
        0,
        0,
        1,
        0,
        0,
        -1,
        0,
        1
      ],
      "name": "node_MeshObject-160953344-PolyPaper21",
      "extras": {
        "name": "node_MeshObject-160953344-PolyPaper21"
      },
      "mesh": 1
    },
    {
      "name": "model.gltf",
      "children": [
        0,
        1
      ]
    }
  ],
  "bufferViews": [
    {
      "buffer": 0,
      "byteOffset": 0,
      "byteLength": 128944,
      "target": 34962,
      "byteStride": 16
    },
    {
      "buffer": 0,
      "byteOffset": 128944,
      "byteLength": 96708,
      "target": 34962,
      "byteStride": 12
    },
    {
      "buffer": 0,
      "byteOffset": 225652,
      "byteLength": 96708,
      "target": 34962,
      "byteStride": 12
    },
    {
      "buffer": 0,
      "byteOffset": 322360,
      "byteLength": 24164,
      "target": 34963
    },
    {
      "buffer": 0,
      "byteOffset": 346524,
      "byteLength": 105616,
      "target": 34962,
      "byteStride": 16
    },
    {
      "buffer": 0,
      "byteOffset": 452140,
      "byteLength": 79212,
      "target": 34962,
      "byteStride": 12
    },
    {
      "buffer": 0,
      "byteOffset": 531352,
      "byteLength": 79212,
      "target": 34962,
      "byteStride": 12
    },
    {
      "buffer": 0,
      "byteOffset": 610564,
      "byteLength": 19376,
      "target": 34963
    }
  ],
  "buffers": [
    {
      "byteLength": 629940,
      "uri": "data:application/octet-stream;base64,"
    }
  ],
  "accessors": [
    {
      "bufferView": 0,
      "componentType": 5126,
      "count": 8059,
      "max": [
        1,
        1,
        1,
        1
      ],
      "min": [
        0,
        0.08919350802898407,
        0,
        1
      ],
      "type": "VEC4"
    },
    {
      "bufferView": 1,
      "componentType": 5126,
      "count": 8059,
      "max": [
        1,
        1,
        1
      ],
      "min": [
        -1,
        -1,
        -1
      ],
      "type": "VEC3"
    },
    {
      "bufferView": 2,
      "componentType": 5126,
      "count": 8059,
      "max": [
        1.6561716794967651,
        1.9008523225784302,
        1.387128472328186
      ],
      "min": [
        -1.2682745456695557,
        1.0708088874816895,
        -1.5807009935379028
      ],
      "type": "VEC3"
    },
    {
      "bufferView": 3,
      "componentType": 5123,
      "count": 12081,
      "max": [
        8058
      ],
      "min": [
        0
      ],
      "type": "SCALAR"
    },
    {
      "bufferView": 4,
      "componentType": 5126,
      "count": 6601,
      "max": [
        1,
        1,
        1,
        1
      ],
      "min": [
        0,
        0.08919350802898407,
        0.03994716703891754,
        1
      ],
      "type": "VEC4"
    },
    {
      "bufferView": 5,
      "componentType": 5126,
      "count": 6601,
      "max": [
        0.9994771480560303,
        0.9999874830245972,
        0.9996068477630615
      ],
      "min": [
        -0.9999338388442993,
        -0.9999880194664001,
        -0.9999068975448608
      ],
      "type": "VEC3"
    },
    {
      "bufferView": 6,
      "componentType": 5126,
      "count": 6601,
      "max": [
        1.650269865989685,
        2.0104472637176514,
        1.390864610671997
      ],
      "min": [
        -1.27338445186615,
        0.9379042387008667,
        -1.5807009935379028
      ],
      "type": "VEC3"
    },
    {
      "bufferView": 7,
      "componentType": 5123,
      "count": 9687,
      "max": [
        6600
      ],
      "min": [
        0
      ],
      "type": "SCALAR"
    }
  ],
  "materials": [
    {
      "pbrMetallicRoughness": {
        "metallicFactor": 0,
        "roughnessFactor": 0.6
      },
      "name": "BlocksPaper"
    }
  ],
  "meshes": [
    {
      "primitives": [
        {
          "mode": 4,
          "attributes": {
            "COLOR_0": 0,
            "NORMAL": 1,
            "POSITION": 2
          },
          "indices": 3,
          "material": 0
        }
      ]
    },
    {
      "primitives": [
        {
          "mode": 4,
          "attributes": {
            "COLOR_0": 4,
            "NORMAL": 5,
            "POSITION": 6
          },
          "indices": 7,
          "material": 0
        }
      ]
    }
  ]
}