{
	"accessors" : 
	[
		{
			"bufferView" : 2,
			"byteOffset" : 0,
			"componentType" : 5126,
			"count" : 8059,
			"max" : 
			[
				1,
				1,
				1,
				1
			],
			"min" : 
			[
				0,
				0.08919350802898407,
				0,
				1
			],
			"name" : "accessor_color_m0-PolyPaper20_-169860",
			"type" : "VEC4"
		},
		{
			"bufferView" : 2,
			"byteOffset" : 128944,
			"componentType" : 5126,
			"count" : 6601,
			"max" : 
			[
				1,
				1,
				1,
				1
			],
			"min" : 
			[
				0,
				0.08919350802898407,
				0.03994716703891754,
				1
			],
			"name" : "accessor_color_m1-PolyPaper21_-169866",
			"type" : "VEC4"
		},
		{
			"bufferView" : 0,
			"byteOffset" : 0,
			"componentType" : 5123,
			"count" : 12081,
			"max" : 
			[
				8058
			],
			"min" : 
			[
				0
			],
			"name" : "accessor_indices_0_m0-PolyPaper20_-169860",
			"type" : "SCALAR"
		},
		{
			"bufferView" : 0,
			"byteOffset" : 24162,
			"componentType" : 5123,
			"count" : 9687,
			"max" : 
			[
				6600
			],
			"min" : 
			[
				0
			],
			"name" : "accessor_indices_0_m1-PolyPaper21_-169866",
			"type" : "SCALAR"
		},
		{
			"bufferView" : 1,
			"byteOffset" : 96708,
			"componentType" : 5126,
			"count" : 8059,
			"max" : 
			[
				1,
				1,
				1
			],
			"min" : 
			[
				-1,
				-1,
				-1
			],
			"name" : "accessor_normal_m0-PolyPaper20_-169860",
			"type" : "VEC3"
		},
		{
			"bufferView" : 1,
			"byteOffset" : 272628,
			"componentType" : 5126,
			"count" : 6601,
			"max" : 
			[
				0.9994771,
				0.9999875,
				0.9996068
			],
			"min" : 
			[
				-0.9999338,
				-0.999988,
				-0.9999069
			],
			"name" : "accessor_normal_m1-PolyPaper21_-169866",
			"type" : "VEC3"
		},
		{
			"bufferView" : 1,
			"byteOffset" : 0,
			"componentType" : 5126,
			"count" : 8059,
			"max" : 
			[
				1.656172,
				1.900852,
				1.387128
			],
			"min" : 
			[
				-1.268275,
				1.070809,
				-1.580701
			],
			"name" : "accessor_position_m0-PolyPaper20_-169860",
			"type" : "VEC3"
		},
		{
			"bufferView" : 1,
			"byteOffset" : 193416,
			"componentType" : 5126,
			"count" : 6601,
			"max" : 
			[
				1.65027,
				2.010447,
				1.390865
			],
			"min" : 
			[
				-1.273384,
				0.9379042,
				-1.580701
			],
			"name" : "accessor_position_m1-PolyPaper21_-169866",
			"type" : "VEC3"
		}
	],
	"asset" : 
	{
		"copyright" : "Unknown",
		"generator" : "glTF 1-to-2 Upgrader for Google Blocks",
		"version" : "2.0"
	},
	"bufferViews" : 
	[
		{
			"buffer" : 0,
			"byteLength" : 43536,
			"byteOffset" : 0,
			"name" : "ushortBufferView",
			"target" : 34963
		},
		{
			"buffer" : 0,
			"byteLength" : 351840,
			"byteOffset" : 43536,
			"byteStride" : 12,
			"name" : "vec3BufferView",
			"target" : 34962
		},
		{
			"buffer" : 0,
			"byteLength" : 234560,
			"byteOffset" : 395376,
			"byteStride" : 16,
			"name" : "vec4BufferView",
			"target" : 34962
		}
	],
	"buffers" : 
	[
		{
			"byteLength" : 629936,
			"name" : "model",
			"uri" : "model.bin"
		}
	],
	"materials" : 
	[
		{
			"alphaMode" : "OPAQUE",
			"doubleSided" : false,
			"name" : "BlocksPaper",
			"pbrMetallicRoughness" : 
			{
				"baseColorFactor" : 
				[
					1,
					1,
					1,
					1
				],
				"metallicFactor" : 0,
				"roughnessFactor" : 0.6
			}
		},
		{
			"alphaMode" : "BLEND",
			"doubleSided" : false,
			"name" : "BlocksGlass",
			"pbrMetallicRoughness" : 
			{
				"baseColorFactor" : 
				[
					0.2,
					0.2,
					1,
					0.3
				],
				"metallicFactor" : 1,
				"roughnessFactor" : 0.4
			}
		},
		{
			"alphaMode" : "OPAQUE",
			"doubleSided" : true,
			"name" : "BlocksGem",
			"pbrMetallicRoughness" : 
			{
				"baseColorFactor" : 
				[
					1,
					0.4,
					1,
					1
				],
				"metallicFactor" : 0,
				"roughnessFactor" : 0.1
			}
		}
	],
	"meshes" : 
	[
		{
			"name" : "mesh_m0-PolyPaper20_-169860",
			"primitives" : 
			[
				{
					"attributes" : 
					{
						"COLOR_0" : 0,
						"NORMAL" : 4,
						"POSITION" : 6
					},
					"indices" : 2,
					"material" : 0,
					"mode" : 4
				}
			]
		},
		{
			"name" : "mesh_m1-PolyPaper21_-169866",
			"primitives" : 
			[
				{
					"attributes" : 
					{
						"COLOR_0" : 1,
						"NORMAL" : 5,
						"POSITION" : 7
					},
					"indices" : 3,
					"material" : 0,
					"mode" : 4
				}
			]
		}
	],
	"nodes" : 
	[
		{
			"matrix" : 
			[
				1,
				0,
				0,
				0,
				0,
				1,
				0,
				0,
				0,
				0,
				1,
				0,
				0,
				0,
				0,
				1
			],
			"mesh" : 1,
			"name" : "node_MeshObject-160953344-PolyPaper21"
		},
		{
			"matrix" : 
			[
				1,
				0,
				0,
				0,
				0,
				1,
				0,
				0,
				0,
				0,
				1,
				0,
				0,
				0,
				0,
				1
			],
			"mesh" : 0,
			"name" : "node_MeshObject-733032448-PolyPaper20"
		}
	],
	"scene" : 0,
	"scenes" : 
	[
		{
			"extras" : {},
			"name" : "defaultScene",
			"nodes" : 
			[
				1,
				0
			]
		}
	]
}