{
  "accessors": [
    {
      "bufferView": 1,
      "componentType": 5126,
      "count": 40,
      "max": [
        0.89399802684783936,
        -0.79374200105667114,
        3.9048080444335938
      ],
      "min": [
        -3.6221380233764648,
        -1.252653956413269,
        -3.9048080444335938
      ],
      "type": "VEC3"
    },
    {
      "bufferView": 1,
      "byteOffset": 480,
      "componentType": 5126,
      "count": 40,
      "max": [
        -0,
        -0.98751294612884521,
        0.15490202605724335
      ],
      "min": [
        -0.048501130193471909,
        -0.99941551685333252,
        -0.15490202605724335
      ],
      "type": "VEC3"
    },
    {
      "bufferView": 0,
      "componentType": 5125,
      "count": 60,
      "max": [
        39
      ],
      "min": [
        0
      ],
      "type": "SCALAR"
    },
    {
      "bufferView": 1,
      "byteOffset": 960,
      "componentType": 5126,
      "count": 244,
      "max": [
        2.5557138919830322,
        0.18722499907016754,
        3.9048080444335938
      ],
      "min": [
        -3.6311149597167969,
        -1.252653956413269,
        -3.9048080444335938
      ],
      "type": "VEC3"
    },
    {
      "bufferView": 1,
      "byteOffset": 3888,
      "componentType": 5126,
      "count": 244,
      "max": [
        0.89157533645629883,
        0.99813151359558105,
        0.99853593111038208
      ],
      "min": [
        -0.93816542625427246,
        -0.95672965049743652,
        -0.99853593111038208
      ],
      "type": "VEC3"
    },
    {
      "bufferView": 0,
      "byteOffset": 240,
      "componentType": 5125,
      "count": 372,
      "max": [
        243
      ],
      "min": [
        0
      ],
      "type": "SCALAR"
    },
    {
      "bufferView": 1,
      "byteOffset": 6816,
      "componentType": 5126,
      "count": 62,
      "max": [
        3.234360933303833,
        -0.55397301912307739,
        0.18491899967193604
      ],
      "min": [
        2.49332594871521,
        -0.93081700801849365,
        -0.18491899967193604
      ],
      "type": "VEC3"
    },
    {
      "bufferView": 1,
      "byteOffset": 7560,
      "componentType": 5126,
      "count": 62,
      "max": [
        0.61097681522369385,
        0.99114501476287842,
        1
      ],
      "min": [
        0,
        -0.8463815450668335,
        -0.94622629880905151
      ],
      "type": "VEC3"
    },
    {
      "bufferView": 0,
      "byteOffset": 1728,
      "componentType": 5125,
      "count": 84,
      "max": [
        61
      ],
      "min": [
        0
      ],
      "type": "SCALAR"
    },
    {
      "bufferView": 1,
      "byteOffset": 8304,
      "componentType": 5126,
      "count": 48,
      "max": [
        0.41872900724411011,
        -0.74014997482299805,
        4.7888288497924805
      ],
      "min": [
        -1.0000020265579224,
        -1.1600029468536377,
        -4.7888288497924805
      ],
      "type": "VEC3"
    },
    {
      "bufferView": 1,
      "byteOffset": 8880,
      "componentType": 5126,
      "count": 48,
      "max": [
        0.58119732141494751,
        0.97890806198120117,
        1
      ],
      "min": [
        -1,
        -0.94758766889572144,
        -1
      ],
      "type": "VEC3"
    },
    {
      "bufferView": 0,
      "byteOffset": 2064,
      "componentType": 5125,
      "count": 72,
      "max": [
        47
      ],
      "min": [
        0
      ],
      "type": "SCALAR"
    }
  ],
  "asset": {
    "extras": {
      "author": "Luca Hofmann (https://sketchfab.com/lucahofmann)",
      "license": "CC-BY-4.0 (http://creativecommons.org/licenses/by/4.0/)",
      "source": "https://sketchfab.com/3d-models/sea-gull-4bd72fec85e648cb9376dd6642b0037d",
      "title": "Sea Gull"
    },
    "generator": "Sketchfab-6.33.0",
    "version": "2.0"
  },
  "bufferViews": [
    {
      "buffer": 0,
      "byteLength": 2352,
      "byteOffset": 0,
      "name": "floatBufferViews",
      "target": 34963
    },
    {
      "buffer": 0,
      "byteLength": 9456,
      "byteOffset": 2352,
      "byteStride": 12,
      "name": "floatBufferViews",
      "target": 34962
    }
  ],
  "buffers": [
    {
      "byteLength": 11808,
      "uri": "scene.bin"
    }
  ],
  "materials": [
    {
      "doubleSided": true,
      "emissiveFactor": [
        0,
        0,
        0
      ],
      "name": "Back",
      "pbrMetallicRoughness": {
        "baseColorFactor": [
          0.11068799999999999,
          0.11068799999999999,
          0.11068799999999999,
          1
        ],
        "metallicFactor": 0,
        "roughnessFactor": 0.59999999999999998
      }
    },
    {
      "doubleSided": true,
      "emissiveFactor": [
        0,
        0,
        0
      ],
      "name": "Body",
      "pbrMetallicRoughness": {
        "baseColorFactor": [
          0.42002299999999998,
          0.42002299999999998,
          0.42002299999999998,
          1
        ],
        "metallicFactor": 0,
        "roughnessFactor": 0.59999999999999998
      }
    },
    {
      "doubleSided": true,
      "emissiveFactor": [
        0,
        0,
        0
      ],
      "name": "Mouth",
      "pbrMetallicRoughness": {
        "baseColorFactor": [
          0.17464699999999997,
          0.090841999999999978,
          0.017641999999999981,
          1
        ],
        "metallicFactor": 0,
        "roughnessFactor": 0.59999999999999998
      }
    },
    {
      "doubleSided": true,
      "emissiveFactor": [
        0,
        0,
        0
      ],
      "name": "Tips",
      "pbrMetallicRoughness": {
        "baseColorFactor": [
          0.063719999999999999,
          0.063719999999999999,
          0.063719999999999999,
          1
        ],
        "metallicFactor": 0,
        "roughnessFactor": 0.59999999999999998
      }
    }
  ],
  "meshes": [
    {
      "primitives": [
        {
          "attributes": {
            "NORMAL": 1,
            "POSITION": 0
          },
          "indices": 2,
          "material": 0,
          "mode": 4
        }
      ]
    },
    {
      "primitives": [
        {
          "attributes": {
            "NORMAL": 4,
            "POSITION": 3
          },
          "indices": 5,
          "material": 1,
          "mode": 4
        }
      ]
    },
    {
      "primitives": [
        {
          "attributes": {
            "NORMAL": 7,
            "POSITION": 6
          },
          "indices": 8,
          "material": 2,
          "mode": 4
        }
      ]
    },
    {
      "primitives": [
        {
          "attributes": {
            "NORMAL": 10,
            "POSITION": 9
          },
          "indices": 11,
          "material": 3,
          "mode": 4
        }
      ]
    }
  ],
  "nodes": [
    {
      "children": [
        1
      ],
      "name": "RootNode (gltf orientation matrix)",
      "rotation": [
        -0.70710678118654746,
        -0,
        -0,
        0.70710678118654757
      ]
    },
    {
      "children": [
        2
      ],
      "matrix": [
        1,
        0,
        0,
        0,
        0,
        -4.4408920985006262e-16,
        -1,
        0,
        0,
        1,
        -4.4408920985006262e-16,
        0,
        0,
        -0.64796352386474609,
        -0.64775228500366211,
        1
      ],
      "name": "RootNode (model correction matrix)"
    },
    {
      "children": [
        3,
        4,
        5,
        6
      ],
      "name": "seagull.obj.cleaner.gles"
    },
    {
      "mesh": 0,
      "name": ""
    },
    {
      "mesh": 1,
      "name": ""
    },
    {
      "mesh": 2,
      "name": ""
    },
    {
      "mesh": 3,
      "name": ""
    }
  ],
  "scene": 0,
  "scenes": [
    {
      "name": "OSG_Scene",
      "nodes": [
        0
      ]
    }
  ]
}

