{
  "asset": {
    "version": "2.0",
    "generator": "GLTFExporter"
  },
  "scenes": [
    {
      "nodes": [
        4
      ],
      "name": "Scene"
    }
  ],
  "scene": 0,
  "nodes": [
    {
      "name": "mesh_0",
      "mesh": 0
    },
    {
      "name": "mesh_1",
      "mesh": 1
    },
    {
      "name": "mesh_2",
      "mesh": 2
    },
    {
      "name": "mesh_3",
      "mesh": 3
    },
    {
      "matrix": [
        -2.220446049250313e-16,
        -1.2246467991473532e-16,
        -1,
        0,
        0,
        -1,
        1.2246467991473532e-16,
        0,
        -1,
        2.465190328815662e-32,
        2.220446049250313e-16,
        0,
        0,
        0,
        0,
        1
      ],
      "name": "seagull.glft",
      "extras": {
        "name": "seagull.obj.cleaner.gles"
      },
      "children": [
        0,
        1,
        2,
        3
      ]
    }
  ],
  "bufferViews": [
    {
      "buffer": 0,
      "byteOffset": 0,
      "byteLength": 480,
      "target": 34962,
      "byteStride": 12
    },
    {
      "buffer": 0,
      "byteOffset": 480,
      "byteLength": 480,
      "target": 34962,
      "byteStride": 12
    },
    {
      "buffer": 0,
      "byteOffset": 960,
      "byteLength": 240,
      "target": 34963
    },
    {
      "buffer": 0,
      "byteOffset": 1200,
      "byteLength": 2928,
      "target": 34962,
      "byteStride": 12
    },
    {
      "buffer": 0,
      "byteOffset": 4128,
      "byteLength": 2928,
      "target": 34962,
      "byteStride": 12
    },
    {
      "buffer": 0,
      "byteOffset": 7056,
      "byteLength": 1488,
      "target": 34963
    },
    {
      "buffer": 0,
      "byteOffset": 8544,
      "byteLength": 744,
      "target": 34962,
      "byteStride": 12
    },
    {
      "buffer": 0,
      "byteOffset": 9288,
      "byteLength": 744,
      "target": 34962,
      "byteStride": 12
    },
    {
      "buffer": 0,
      "byteOffset": 10032,
      "byteLength": 336,
      "target": 34963
    },
    {
      "buffer": 0,
      "byteOffset": 10368,
      "byteLength": 576,
      "target": 34962,
      "byteStride": 12
    },
    {
      "buffer": 0,
      "byteOffset": 10944,
      "byteLength": 576,
      "target": 34962,
      "byteStride": 12
    },
    {
      "buffer": 0,
      "byteOffset": 11520,
      "byteLength": 288,
      "target": 34963
    }
  ],
  "buffers": [
    {
      "byteLength": 11808,
      "uri": "data:application/octet-stream;base64,"
    }
  ],
  "accessors": [
    {
      "bufferView": 0,
      "componentType": 5126,
      "count": 40,
      "max": [
        0,
        -0.9875129461288452,
        0.15490202605724335
      ],
      "min": [
        -0.04850113019347191,
        -0.9994155168533325,
        -0.15490202605724335
      ],
      "type": "VEC3"
    },
    {
      "bufferView": 1,
      "componentType": 5126,
      "count": 40,
      "max": [
        0.8939980268478394,
        -0.7937420010566711,
        3.9048080444335938
      ],
      "min": [
        -3.622138023376465,
        -1.252653956413269,
        -3.9048080444335938
      ],
      "type": "VEC3"
    },
    {
      "bufferView": 2,
      "componentType": 5125,
      "count": 60,
      "max": [
        39
      ],
      "min": [
        0
      ],
      "type": "SCALAR"
    },
    {
      "bufferView": 3,
      "componentType": 5126,
      "count": 244,
      "max": [
        0.8915753364562988,
        0.998131513595581,
        0.9985359311103821
      ],
      "min": [
        -0.9381654262542725,
        -0.9567296504974365,
        -0.9985359311103821
      ],
      "type": "VEC3"
    },
    {
      "bufferView": 4,
      "componentType": 5126,
      "count": 244,
      "max": [
        2.5557138919830322,
        0.18722499907016754,
        3.9048080444335938
      ],
      "min": [
        -3.631114959716797,
        -1.252653956413269,
        -3.9048080444335938
      ],
      "type": "VEC3"
    },
    {
      "bufferView": 5,
      "componentType": 5125,
      "count": 372,
      "max": [
        243
      ],
      "min": [
        0
      ],
      "type": "SCALAR"
    },
    {
      "bufferView": 6,
      "componentType": 5126,
      "count": 62,
      "max": [
        0.6109768152236938,
        0.9911450147628784,
        1
      ],
      "min": [
        0,
        -0.8463815450668335,
        -0.9462262988090515
      ],
      "type": "VEC3"
    },
    {
      "bufferView": 7,
      "componentType": 5126,
      "count": 62,
      "max": [
        3.234360933303833,
        -0.5539730191230774,
        0.18491899967193604
      ],
      "min": [
        2.49332594871521,
        -0.9308170080184937,
        -0.18491899967193604
      ],
      "type": "VEC3"
    },
    {
      "bufferView": 8,
      "componentType": 5125,
      "count": 84,
      "max": [
        61
      ],
      "min": [
        0
      ],
      "type": "SCALAR"
    },
    {
      "bufferView": 9,
      "componentType": 5126,
      "count": 48,
      "max": [
        0.5811973214149475,
        0.9789080619812012,
        1
      ],
      "min": [
        -1,
        -0.9475876688957214,
        -1
      ],
      "type": "VEC3"
    },
    {
      "bufferView": 10,
      "componentType": 5126,
      "count": 48,
      "max": [
        0.4187290072441101,
        -0.740149974822998,
        4.7888288497924805
      ],
      "min": [
        -1.0000020265579224,
        -1.1600029468536377,
        -4.7888288497924805
      ],
      "type": "VEC3"
    },
    {
      "bufferView": 11,
      "componentType": 5125,
      "count": 72,
      "max": [
        47
      ],
      "min": [
        0
      ],
      "type": "SCALAR"
    }
  ],
  "materials": [
    {
      "pbrMetallicRoughness": {
        "baseColorFactor": [
          0.110688,
          0.110688,
          0.110688,
          1
        ],
        "metallicFactor": 0,
        "roughnessFactor": 0.6
      },
      "doubleSided": true,
      "name": "Back"
    },
    {
      "pbrMetallicRoughness": {
        "baseColorFactor": [
          0.420023,
          0.420023,
          0.420023,
          1
        ],
        "metallicFactor": 0,
        "roughnessFactor": 0.6
      },
      "doubleSided": true,
      "name": "Body"
    },
    {
      "pbrMetallicRoughness": {
        "baseColorFactor": [
          0.17464699999999997,
          0.09084199999999998,
          0.01764199999999998,
          1
        ],
        "metallicFactor": 0,
        "roughnessFactor": 0.6
      },
      "doubleSided": true,
      "name": "Mouth"
    },
    {
      "pbrMetallicRoughness": {
        "baseColorFactor": [
          0.06372,
          0.06372,
          0.06372,
          1
        ],
        "metallicFactor": 0,
        "roughnessFactor": 0.6
      },
      "doubleSided": true,
      "name": "Tips"
    }
  ],
  "meshes": [
    {
      "primitives": [
        {
          "mode": 4,
          "attributes": {
            "NORMAL": 0,
            "POSITION": 1
          },
          "indices": 2,
          "material": 0
        }
      ]
    },
    {
      "primitives": [
        {
          "mode": 4,
          "attributes": {
            "NORMAL": 3,
            "POSITION": 4
          },
          "indices": 5,
          "material": 1
        }
      ]
    },
    {
      "primitives": [
        {
          "mode": 4,
          "attributes": {
            "NORMAL": 6,
            "POSITION": 7
          },
          "indices": 8,
          "material": 2
        }
      ]
    },
    {
      "primitives": [
        {
          "mode": 4,
          "attributes": {
            "NORMAL": 9,
            "POSITION": 10
          },
          "indices": 11,
          "material": 3
        }
      ]
    }
  ]
}